# xmcd
# 
# Track frame offsets:
#     150
#     35081
#     85970
#     133007
#     180803
#     223822
#     260095
# 
# Disc length: 3848
# 
# Revision: 1
# Processed by: cddbd v1.5.2PL0 Copyright (c) Steve Scherf et al.
# Submitted via: fre:ac v1.0.17
# 
DISCID=630f0607
DTITLE=Larry Carlton with special guest Robben Ford - Live In Tokyo
DYEAR=2007
DGENRE=Blues
TTITLE0=That Road
TTITLE1=Burnable
TTITLE2=Cold Gold
TTITLE3=Rio Samba
TTITLE4=Derrick's Blues
TTITLE5=Two Bad
TTITLE6=Talk To Your Daughter
EXTD=
EXTT0=
EXTT1=
EXTT2=
EXTT3=
EXTT4=
EXTT5=
EXTT6=
PLAYORDER=
